<svg width="97" height="96" viewBox="0 0 97 96" fill="none" xmlns="http://www.w3.org/2000/svg">
<path d="M7.01306 72.16H30.3331V87.15H7.01306V72.16Z" stroke="white" stroke-width="2" stroke-miterlimit="8"/>
<path d="M37.0031 72.16H58.6631V87.15H37.0031V72.16Z" stroke="white" stroke-width="2" stroke-miterlimit="8"/>
<path d="M66.983 72.16H88.643V87.15H66.983V72.16Z" stroke="white" stroke-width="2" stroke-miterlimit="8"/>
<path d="M12.0131 92.15H27.0031" stroke="white" stroke-width="2" stroke-miterlimit="8"/>
<path d="M18.673 87.15V92.15" stroke="white" stroke-width="2" stroke-miterlimit="8"/>
<path d="M40.333 92.15H55.323" stroke="white" stroke-width="2" stroke-miterlimit="8"/>
<path d="M48.663 87.15V92.15" stroke="white" stroke-width="2" stroke-miterlimit="8"/>
<path d="M70.323 92.15H85.313" stroke="white" stroke-width="2" stroke-miterlimit="8"/>
<path d="M76.983 87.15V92.15" stroke="white" stroke-width="2" stroke-miterlimit="8"/>
<path d="M28.673 67.16V52.16" stroke="white" stroke-width="2" stroke-miterlimit="8"/>
<path d="M48.663 67.16V48.83" stroke="white" stroke-width="2" stroke-miterlimit="8"/>
<path d="M68.6531 67.16V53.83" stroke="white" stroke-width="2" stroke-miterlimit="8"/>
<path d="M32.0031 55.54H45.3331" stroke="white" stroke-width="2" stroke-miterlimit="8"/>
<path d="M51.993 55.54H65.323" stroke="white" stroke-width="2" stroke-miterlimit="8"/>
<path d="M28.673 48.83V43.83" stroke="white" stroke-width="2" stroke-miterlimit="8"/>
<path d="M28.673 40.4999V37.1699" stroke="white" stroke-width="2" stroke-miterlimit="8"/>
<path d="M48.663 43.84V40.5" stroke="white" stroke-width="2" stroke-miterlimit="8"/>
<path d="M48.663 37.1699V32.1699" stroke="white" stroke-width="2" stroke-miterlimit="8"/>
<path d="M68.6531 50.5V45.5" stroke="white" stroke-width="2" stroke-miterlimit="8"/>
<path d="M48.663 28.84V25.51" stroke="white" stroke-width="2" stroke-miterlimit="8"/>
<path d="M71.843 55.45H77.673C84.873 55.45 90.663 49.47 90.663 42.05C90.663 34.63 84.873 28.65 77.673 28.65C76.363 28.65 74.963 28.84 73.753 29.32C73.933 28.45 74.033 27.58 74.033 26.81C74.033 19.38 68.233 13.41 61.043 13.41C57.953 13.41 54.873 14.57 52.533 16.69C49.923 8.96998 42.913 3.84998 35.063 3.84998C24.783 3.84998 16.463 12.43 16.463 23.04C16.463 24.97 16.743 26.99 17.303 28.83C10.573 29.41 5.34302 35.2 5.34302 42.14C5.34302 49.57 11.133 55.54 18.333 55.54H23.823" stroke="white" stroke-width="2" stroke-miterlimit="10"/>
<path d="M52.533 16.58C53.003 18.03 53.373 19.47 53.473 21.02" stroke="white" stroke-width="2" stroke-miterlimit="10"/>
<path d="M73.773 29.22C73.493 30.76 72.933 32.21 72.183 33.56" stroke="white" stroke-width="2" stroke-miterlimit="10"/>
<path d="M17.303 28.83C18.893 28.73 20.573 28.93 22.163 29.41" stroke="white" stroke-width="2" stroke-miterlimit="10"/>
</svg>
